# xmcd
#
# Track frame offsets: 
#        150
#        18502
#        35903
#        56560
#        73841
#        91789
#        112432
#        130174
#        149795
#        166649
#        193535
#        212252
#        225797
#        241181
#        260837
#        282208
#        300631
#        323287
#        355512
#
# Disc length: 4770 seconds
#
# Revision: 3
# Processed by: cddbd v1.5.1PL0 Copyright (c) Steve Scherf et al.
# Submitted via: ExactAudioCopy v0.95a5
#
DISCID=0c12a013
DTITLE=Aaliyah - Aaliyah - Edition 2004
DYEAR=2004
DGENRE=R&B
TTITLE0=We Need A Resolution (feat. Timbaland)
TTITLE1=Loose Rap (feat. Static From Playa)
TTITLE2=Rock The Boat
TTITLE3=More Than A Woman
TTITLE4=Never No More
TTITLE5=I Care 4 U
TTITLE6=Extra Smooth
TTITLE7=Read Between The Lines
TTITLE8=U Got Nerve
TTITLE9=I Refuse
TTITLE10=It's Whatever
TTITLE11=I Can Be
TTITLE12=Those Were The Days
TTITLE13=What If
TTITLE14=Try Again
TTITLE15=Miss You
TTITLE16=Don't Know What To Tell Ya
TTITLE17=Erica Kane
TTITLE18=Daten-CD
EXTD=
EXTT0=
EXTT1=
EXTT2=
EXTT3=
EXTT4=
EXTT5=
EXTT6=
EXTT7=
EXTT8=
EXTT9=
EXTT10=
EXTT11=
EXTT12=
EXTT13=
EXTT14=
EXTT15=
EXTT16=
EXTT17=
EXTT18=
PLAYORDER=
